<?xml version="1.0" encoding="UTF-8"?>
<svg version="1.1" xmlns="http://www.w3.org/2000/svg" width="334" height="400">
<path d="M0 0 C110.22 0 220.44 0 334 0 C334 132 334 264 334 400 C223.78 400 113.56 400 0 400 C0 268 0 136 0 0 Z " fill="#D18565" transform="translate(0,0)"/>
<path d="M0 0 C110.22 0 220.44 0 334 0 C334 132 334 264 334 400 C223.78 400 113.56 400 0 400 C0 268 0 136 0 0 Z M139 14 C139 14.33 139 14.66 139 15 C140.19496094 15.10957031 141.38992187 15.21914062 142.62109375 15.33203125 C150.77236917 16.12815456 158.34998604 16.88332764 166 20 C165.14921875 19.7834375 164.2984375 19.566875 163.421875 19.34375 C141.78359242 14.3715489 123.15637953 17.07436917 103 26 C91.8299242 30.70249653 82.88928783 33.73352636 71 30 C66.41286789 28.03222458 62.15186341 25.76790894 58 23 C59.67108329 36.11925087 64.18916209 44.15100894 74 53 C64.76797761 48.95086737 59.66558787 43.16511193 54 35 C53.67 35 53.34 35 53 35 C52.19131609 55.40786165 52.19131609 55.40786165 61.29296875 73.21484375 C65.46238065 77.57507541 70.19021769 81.18444303 76 83 C68.11025956 81.74766025 61.65728079 79.2540399 56.32421875 73.05078125 C55.14645456 71.41518197 54.06205648 69.71299432 53 68 C50.63718351 70.36281649 50.70432342 70.90611822 50.6875 74.125 C50.91430092 82.46326916 54.37420406 88.93761235 60 95 C62.56140694 97.16911939 65.21249553 99.13223051 68 101 C67.76023437 102.28003906 67.76023437 102.28003906 67.515625 103.5859375 C66.02754968 113.43879988 66.41930917 123.62121805 70 133 C70.66 133.33 71.32 133.66 72 134 C72.86962891 136.02539062 72.86962891 136.02539062 73.7265625 138.65625 C74.0359375 139.59597656 74.3453125 140.53570312 74.6640625 141.50390625 C74.98117188 142.49261719 75.29828125 143.48132813 75.625 144.5 C76.11226562 145.98306641 76.11226562 145.98306641 76.609375 147.49609375 C79 154.81863839 79 154.81863839 79 156 C77.515 154.7934375 77.515 154.7934375 76 153.5625 C71.89192845 150.64950381 69.04257926 150 64 150 C60.15761112 151.23246436 58.5049629 152.30988404 56.125 155.5625 C52.69240339 166.05098964 56.15871417 177.27506311 60.3203125 187.125 C65.39934047 197.11653044 71.61807467 203.19894097 82.15625 207.1640625 C86.88817632 208.55504084 90.26941667 208.57686111 95 207 C95.12246094 207.86625 95.24492188 208.7325 95.37109375 209.625 C98.00136424 223.74024041 107.70641436 243.64845452 119.76733398 252.26220703 C123.77179603 255.16786167 125.44006192 257.24036577 126.33984375 262.1796875 C126.57012916 264.07460747 126.76874541 265.97361236 126.9375 267.875 C127.04900391 268.84953125 127.16050781 269.8240625 127.27539062 270.828125 C127.54474545 273.21718518 127.78530658 275.60551442 128 278 C126.82244141 277.67515625 126.82244141 277.67515625 125.62109375 277.34375 C115.84509083 274.58121247 115.84509083 274.58121247 106.01953125 276.0859375 C102.27045765 278.46245246 101.10227683 281.00829067 99.5625 285 C99.2752002 285.70133057 98.98790039 286.40266113 98.69189453 287.12524414 C97.76875722 289.40751435 96.88132506 291.70128618 96 294 C95.69916504 294.77069824 95.39833008 295.54139648 95.08837891 296.33544922 C94.1702461 298.69783587 93.2691095 301.06592314 92.375 303.4375 C92.07464844 304.22584229 91.77429688 305.01418457 91.46484375 305.82641602 C89.99487522 309.80988438 88.79937152 313.66775206 88.01171875 317.84375 C87.13462746 322.2995041 86.19884257 325.98979668 84 330 C79.66812627 332.40659652 75.31883057 332.94988386 70.48681641 333.59375 C54.24129421 336.24764249 30.1835531 342.92287625 19.0625 355.75 C12.3868003 365.971167 9.06284491 377.09340396 7 389 C10.23274211 390.91058912 12.61995569 391.25039815 16.3536377 391.25168228 C17.44595451 391.25689778 18.53827133 391.26211327 19.66368866 391.26748681 C20.86328468 391.26302537 22.06288071 391.25856392 23.29882812 391.25396729 C25.21082378 391.25864726 25.21082378 391.25864726 27.16144562 391.26342177 C30.70201248 391.27178554 34.2424718 391.26763736 37.78303909 391.26144934 C41.60040269 391.25693231 45.41774753 391.26390488 49.23510742 391.26940918 C56.71430536 391.27831284 64.19346321 391.27637684 71.67266273 391.2705839 C77.74995885 391.26607124 83.82724371 391.26545279 89.90454102 391.26763153 C91.2008648 391.26809123 91.2008648 391.26809123 92.52337694 391.26856022 C94.27889188 391.26919965 96.03440682 391.26984808 97.78992176 391.2705054 C114.26004605 391.27621154 130.7301481 391.26964634 147.20026875 391.25890467 C161.33925281 391.2499689 175.47820403 391.25152086 189.6171875 391.26074219 C206.02747895 391.2714398 222.4377509 391.27566219 238.84804535 391.26951766 C240.59718322 391.26888055 242.3463211 391.26825181 244.09545898 391.26763153 C244.95611859 391.26732298 245.81677819 391.26701443 246.70351839 391.26669653 C252.77508798 391.26496806 258.84664522 391.26788796 264.91821289 391.27259064 C272.31516509 391.27819382 279.71207482 391.2766949 287.10902214 391.26602915 C290.88466606 391.26076484 294.66023913 391.25872858 298.43588257 391.26532745 C302.52437431 391.27236516 306.61268639 391.26397463 310.70117188 391.25396729 C311.9007679 391.25842873 313.10036392 391.26289017 314.33631134 391.26748681 C315.42862816 391.26227132 316.52094498 391.25705582 317.6463623 391.25168228 C318.59045708 391.25135758 319.53455185 391.25103287 320.50725555 391.25069833 C323.11705509 390.98822763 324.75773571 390.32520492 327 389 C325.11999686 374.99818557 320.18372681 359.29890392 308.72045898 350.18310547 C305.59683567 348.03508808 302.22525214 346.55070152 298.75 345.0625 C297.58005493 344.5526355 297.58005493 344.5526355 296.38647461 344.0324707 C288.09576902 340.49378529 279.61263205 337.6407469 271 335 C269.948125 334.67 268.89625 334.34 267.8125 334 C261.57497448 332.15709473 255.48806828 331.3639342 249 331 C248.89558594 329.8759375 248.79117188 328.751875 248.68359375 327.59375 C248.06186337 322.68024817 246.65802276 318.17583658 245.0625 313.5 C244.75965088 312.60941895 244.45680176 311.71883789 244.14477539 310.80126953 C241.583805 303.42501178 238.83225201 296.12641137 235.9375 288.875 C235.53861572 287.83794922 235.13973145 286.80089844 234.72875977 285.73242188 C232.40086571 279.95833392 232.40086571 279.95833392 227.88671875 275.84375 C220.28659592 273.62233386 213.3996427 275.95871926 206 278 C206.22099543 274.76816639 206.48191078 271.54074104 206.75 268.3125 C206.811875 267.40048828 206.87375 266.48847656 206.9375 265.54882812 C207.40612339 260.17918512 207.96528807 256.90480643 212 253 C212.7425 252.2575 213.485 251.515 214.25 250.75 C215.1575 249.8425 216.065 248.935 217 248 C225.56127288 239.24374989 230.3814889 229.54968181 235.375 218.5 C235.73335937 217.70988525 236.09171875 216.91977051 236.4609375 216.10571289 C236.7909375 215.35926514 237.1209375 214.61281738 237.4609375 213.84375 C237.75790527 213.17537109 238.05487305 212.50699219 238.36083984 211.81835938 C239.16580699 209.84952946 239.16580699 209.84952946 239 207 C239.66 207.33 240.32 207.66 241 208 C248.46869516 208.79454204 255.2774395 206.47588139 261.49609375 202.33984375 C272.2293839 193.52515184 277.42221527 179.77833248 279 166.25 C279.28252557 160.77688847 278.7029057 156.23665787 275 152 C271.27307927 149.71114363 268.35645937 149.62444316 264 150 C259.30761779 151.78310524 256.37741369 154.32457922 253 158 C255.00206842 151.28093706 257.05171005 144.57783201 259.1328125 137.8828125 C259.82050416 135.59670239 260.45031041 133.32215806 261 131 C261.33 131.99 261.66 132.98 262 134 C262.12375 133.43152344 262.2475 132.86304688 262.375 132.27734375 C263.63228211 127.57039385 264.87074206 124.72474846 268.75 121.6875 C275.89943831 115.98905471 280.55127037 107.47394162 281.8515625 98.4296875 C282.61042403 86.00832246 278.01126858 75.37717452 270 66 C261.39036812 57.61075119 251.2091315 51.90722544 239 52 C235.31506714 52.21096944 231.66279428 52.54737333 228 53 C228.50660156 52.1646875 228.50660156 52.1646875 229.0234375 51.3125 C233.24251104 44.09373833 235.77769216 37.55461376 235 29 C233.14402494 22.50408728 229.53025337 18.81041666 224 15 C218.1587618 12.46512305 212.25871337 12.79628058 206 13 C206.721875 13.5775 207.44375 14.155 208.1875 14.75 C209.5796875 15.86375 209.5796875 15.86375 211 17 C211.845625 17.598125 212.69125 18.19625 213.5625 18.8125 C219.03909717 23.7273949 222.55052633 31.78801812 223.18359375 39.12890625 C223.18687627 40.75375373 223.10350325 42.37844914 223 44 C222.79246094 43.23816406 222.58492187 42.47632813 222.37109375 41.69140625 C218.83031269 29.82460446 212.94708289 21.99696754 202 16 C182.89244624 7.46499079 158.55337552 5.38452803 139 14 Z " fill="#FEFEFE" transform="translate(0,0)"/>
<path d="M0 0 C0.495 0.495 0.495 0.495 1 1 C0.94536494 14.27632054 0.01114581 26.97770838 -6 39 C-5.88686234 43.52550657 -3.77101336 46.5184704 -1 50 C10.59855753 60.77790487 26.86106738 64.74727629 42.359375 64.34765625 C55.42327278 63.10013811 69.43142503 59.30318478 78.625 49.5 C81.28430948 46.19668238 83.49797538 43.31741174 84 39 C83.02528857 37.64806975 82.02237931 36.31625162 81 35 C78.02793419 28.65959294 77.43694429 21.56577452 76.6875 14.6875 C76.58687256 13.81544922 76.48624512 12.94339844 76.38256836 12.04492188 C75.55437445 3.51131713 75.55437445 3.51131713 78 0 C84.65826832 -2.96035298 92.98416787 -4.35634065 99.94921875 -2.00390625 C104.17614301 0.77254976 105.18855398 3.81492111 106.9375 8.4375 C107.43672974 9.6893811 107.43672974 9.6893811 107.94604492 10.96655273 C112.26345474 21.94060864 116.17962248 33.08496158 119.69921875 44.33984375 C119.94889404 45.13640381 120.19856934 45.93296387 120.45581055 46.75366211 C121 49 121 49 121 53 C121.66064453 53.03665771 122.32128906 53.07331543 123.00195312 53.11108398 C130.14733675 53.61886819 136.65158912 55.0005279 143.5 57.0625 C145.05170898 57.52342041 145.05170898 57.52342041 146.63476562 57.99365234 C153.39184268 60.05877623 159.982489 62.39693741 166.5 65.125 C167.24572266 65.43703369 167.99144531 65.74906738 168.75976562 66.07055664 C181.13768064 71.4753355 188.51182211 78.36563971 193.86328125 90.953125 C199.23738889 105.3579496 199.23738889 105.3579496 198.7890625 110.34765625 C198.39847656 111.16556641 198.39847656 111.16556641 198 112 C194.96673095 113.01108968 192.94186038 113.12626832 189.76941013 113.12863445 C188.67908436 113.1318589 187.58875859 113.13508335 186.46539265 113.1384055 C185.26288378 113.1368569 184.06037492 113.1353083 182.82142639 113.13371277 C180.91071237 113.1371111 180.91071237 113.1371111 178.96139807 113.14057809 C175.41860107 113.14671072 171.87582762 113.14656078 168.33302653 113.14538372 C164.51496745 113.14518008 160.69691601 113.15069489 156.87886047 113.15544128 C149.39619493 113.16375622 141.91353727 113.1664965 134.4308675 113.16705366 C128.35068927 113.16752839 122.27051364 113.16958096 116.19033623 113.17275429 C98.96301314 113.18156288 81.7356963 113.1861733 64.50837094 113.18542381 C63.57917543 113.18538386 62.64997991 113.1853439 61.69262695 113.18530273 C60.76230089 113.18526185 59.83197483 113.18522097 58.87345707 113.18517885 C43.78993311 113.18477224 28.7064341 113.19434503 13.62291736 113.2084411 C-1.85384855 113.22279091 -17.33060228 113.22971207 -32.80737501 113.22884732 C-41.50080993 113.22851489 -50.19421869 113.23128234 -58.88764763 113.24202538 C-66.28827969 113.25111201 -73.68887373 113.25332078 -81.08950894 113.24651595 C-84.86717402 113.24324152 -88.64476609 113.24322716 -92.42242432 113.2518692 C-96.51315293 113.26113143 -100.60371106 113.25498237 -104.69444275 113.24723816 C-105.89472089 113.25238172 -107.09499904 113.25752529 -108.33164924 113.26282471 C-109.42458276 113.25822592 -110.51751628 113.25362712 -111.64356899 113.24888897 C-113.06052426 113.24921502 -113.06052426 113.24921502 -114.50610489 113.24954766 C-117.11719009 112.98827356 -118.7569505 112.32604314 -121 111 C-113.78379409 79.23256839 -113.78379409 79.23256839 -102.00097656 71.7265625 C-84.19959871 61.6373316 -63.84142125 56.38211731 -44 52 C-43.84031738 51.43418213 -43.68063477 50.86836426 -43.51611328 50.28540039 C-40.13062983 38.42432943 -36.34331633 26.82788271 -31.75 15.375 C-31.32605957 14.31547119 -30.90211914 13.25594238 -30.46533203 12.16430664 C-25.43349463 -0.1637948 -25.43349463 -0.1637948 -21.75 -2.3125 C-14.24748548 -4.18812863 -7.23337114 -2.20195683 0 0 Z " fill="#730015" transform="translate(128,278)"/>
<path d="M0 0 C7.54555978 6.54111838 11.26861351 13.61165236 13.5625 23.25 C14.29825215 15.15672635 11.86898933 6.61785805 6.75 0.25 C3.74432559 -2.89404306 0.43578478 -4.81335761 -3.4375 -6.75 C-3.4375 -7.08 -3.4375 -7.41 -3.4375 -7.75 C4.54692188 -8.15295213 11.99338935 -8.20959429 18.60546875 -3.203125 C23.34940732 1.21803012 25.24933519 4.99308602 25.875 11.5 C25.23103178 19.22761869 22.67102467 25.73302983 18.5625 32.25 C19.45710937 32.15460937 20.35171875 32.05921875 21.2734375 31.9609375 C35.57916983 30.64932451 45.55702 33.04728517 57.1875 41.75 C66.22507615 50.08901954 72.04297261 61.8052584 72.71484375 74.01953125 C72.33195325 85.65607289 65.80686771 95.43270539 57.5625 103.25 C56.5725 103.745 56.5725 103.745 55.5625 104.25 C54.65524566 106.36327425 54.65524566 106.36327425 53.9375 108.8125 C53.67710937 109.63878906 53.41671875 110.46507812 53.1484375 111.31640625 C52.95507812 111.95449219 52.76171875 112.59257812 52.5625 113.25 C52.2325 111.93 51.9025 110.61 51.5625 109.25 C51.21638672 110.63058594 51.21638672 110.63058594 50.86328125 112.0390625 C47.48220736 125.16244021 43.52662661 137.52346379 36.5625 149.25 C35.44689281 145.90317843 35.71310817 144.69134135 36.4375 141.3125 C37.62458735 135.31289635 38.15818493 129.34664568 38.5625 123.25 C37.78132812 122.96125 37.00015625 122.6725 36.1953125 122.375 C32.70416924 120.88323552 31.58111641 119.47978625 29.5625 116.25 C26.74621416 109.18410313 26.16847798 102.66570162 26.375 95.125 C26.38853516 94.16851562 26.40207031 93.21203125 26.41601562 92.2265625 C26.45090778 89.9004189 26.49991661 87.5755347 26.5625 85.25 C25.82644531 84.97414063 25.09039062 84.69828125 24.33203125 84.4140625 C14.7602868 80.39095976 5.50578694 72.8614764 1.171875 63.28125 C0.14384606 59.85448687 0.30871782 56.8029505 0.5625 53.25 C-0.49324219 53.64832031 -0.49324219 53.64832031 -1.5703125 54.0546875 C-11.3024491 57.53589563 -20.82833134 58.96146259 -31.08984375 59.63671875 C-32.09426514 59.70810059 -33.09868652 59.77948242 -34.13354492 59.85302734 C-36.11811927 59.98915052 -38.10410794 60.10643059 -40.09106445 60.20166016 C-49.53755951 60.84527646 -57.75525133 64.41588204 -64.4375 71.25 C-69.39882915 78.00638291 -72.10207682 85.25461006 -74.4375 93.25 C-79.33600197 87.23820213 -80.55938366 80.88804244 -80.4375 73.25 C-79.72064953 69.79441309 -78.70157647 66.54231217 -77.4375 63.25 C-80.54235441 64.70251852 -83.40833543 66.45612566 -86.31225586 68.27172852 C-94.69014318 73.47995817 -103.31616164 77.52235712 -112.4375 81.25 C-112.41655273 81.87865967 -112.39560547 82.50731934 -112.37402344 83.1550293 C-111.63650262 108.67184907 -111.63650262 108.67184907 -116.4375 117.25 C-118.26171875 118.796875 -118.26171875 118.796875 -120.1875 120.0625 C-122.11901342 121.26899948 -122.11901342 121.26899948 -123.4375 123.25 C-124.49741514 131.19081587 -123.75084637 139.36992177 -122.4375 147.25 C-125.59634728 144.59848274 -127.12107049 141.23394415 -128.8125 137.5625 C-129.11631592 136.91200684 -129.42013184 136.26151367 -129.7331543 135.59130859 C-132.28028329 129.96307255 -134.17735131 124.21191859 -135.83935547 118.2668457 C-136.32073061 116.57906911 -136.87298926 114.91181813 -137.4375 113.25 C-138.0975 112.92 -138.7575 112.59 -139.4375 112.25 C-143.34678388 102.01054543 -143.43509372 90.91457291 -141.4375 80.25 C-142.43330078 79.50556641 -142.43330078 79.50556641 -143.44921875 78.74609375 C-150.98616707 72.94759483 -156.58957532 67.99360287 -158.4375 58.25 C-158.6713612 55.22970745 -158.85390644 52.25669947 -158.4375 49.25 C-157.7775 48.59 -157.1175 47.93 -156.4375 47.25 C-156.0971875 47.76949219 -155.756875 48.28898437 -155.40625 48.82421875 C-150.02277958 56.57011635 -144.40811373 60.2790593 -135.125 61.98828125 C-134.2896875 62.11783203 -134.2896875 62.11783203 -133.4375 62.25 C-134.5925 61.734375 -135.7475 61.21875 -136.9375 60.6875 C-146.59628412 55.755718 -151.36440626 49.24246874 -155.4375 39.25 C-156.36568097 36.18884951 -156.55462927 33.45920087 -156.53515625 30.265625 C-156.53193359 29.33105469 -156.52871094 28.39648438 -156.52539062 27.43359375 C-156.51701172 26.46550781 -156.50863281 25.49742188 -156.5 24.5 C-156.49548828 23.51644531 -156.49097656 22.53289063 -156.48632812 21.51953125 C-156.47456483 19.09629209 -156.45812684 16.67317727 -156.4375 14.25 C-153.51524008 17.11272322 -150.79496544 19.9883018 -148.25 23.1875 C-144.34460442 27.74091476 -139.69121073 30.45929652 -134.4375 33.25 C-135.13875 32.569375 -135.84 31.88875 -136.5625 31.1875 C-145.39970135 22.27519496 -149.68015227 14.8289101 -151.4375 2.25 C-150.78523438 2.65992188 -150.13296875 3.06984375 -149.4609375 3.4921875 C-139.90035435 9.38647033 -131.10820743 12.75163086 -119.8125 10.25 C-114.10710164 8.66069134 -108.82990026 6.32572996 -103.453125 3.88232422 C-83.46769092 -5.12742401 -63.55556488 -5.70507668 -42.4375 -0.75 C-51.80744648 -3.5363603 -60.59841922 -5.41815916 -70.4375 -5.75 C-67.53111794 -7.68758804 -65.51715696 -8.42428145 -62.1875 -9.3125 C-61.27484375 -9.56128906 -60.3621875 -9.81007813 -59.421875 -10.06640625 C-40.21634771 -14.46557808 -16.10135118 -12.07001437 0 0 Z " fill="#243152" transform="translate(209.4375,20.75)"/>
<path d="M0 0 C1.74004116 2.64874618 2.81916058 5.48165566 3.9375 8.4375 C4.27031982 9.2720874 4.60313965 10.1066748 4.94604492 10.96655273 C9.26345474 21.94060864 13.17962248 33.08496158 16.69921875 44.33984375 C16.94889404 45.13640381 17.19856934 45.93296387 17.45581055 46.75366211 C18 49 18 49 18 53 C18.66064453 53.03665771 19.32128906 53.07331543 20.00195312 53.11108398 C27.14733675 53.61886819 33.65158912 55.0005279 40.5 57.0625 C41.53447266 57.36978027 42.56894531 57.67706055 43.63476562 57.99365234 C50.39184268 60.05877623 56.982489 62.39693741 63.5 65.125 C64.24572266 65.43703369 64.99144531 65.74906738 65.75976562 66.07055664 C78.13768064 71.4753355 85.51182211 78.36563971 90.86328125 90.953125 C96.23738889 105.3579496 96.23738889 105.3579496 95.7890625 110.34765625 C95.52867187 110.89292969 95.26828125 111.43820312 95 112 C92.09098987 112.96967004 90.26012509 113.12352446 87.23542786 113.12025452 C86.25526199 113.12162918 85.27509613 113.12300385 84.26522827 113.12442017 C83.19132843 113.12082489 82.11742859 113.11722961 81.01098633 113.11352539 C79.87913406 113.11367142 78.7472818 113.11381744 77.58113098 113.1139679 C73.83141173 113.11326995 70.08174185 113.10548304 66.33203125 113.09765625 C63.73557055 113.09579165 61.13910949 113.09436795 58.54264832 113.09336853 C52.40161011 113.08993752 46.26059235 113.08205206 40.11956185 113.07201904 C33.1280921 113.06084438 26.13662151 113.05534404 19.14514506 113.05032361 C4.76342048 113.03986909 -9.61828913 113.02227808 -24 113 C-23.80614658 107.94467181 -23.590174 102.89091312 -23.35493469 97.83734131 C-23.27811985 96.12332029 -23.20702816 94.40903168 -23.1421051 92.69451904 C-22.64295778 79.65818918 -20.57661464 69.10578976 -14.98095703 57.21728516 C-8.04378246 41.5369916 -3.85624263 20.93968011 -8 4 C-8.9075 4.33 -9.815 4.66 -10.75 5 C-16.06183796 6.55521854 -21.52020695 6.16196433 -27 6 C-26.75 3.1875 -26.75 3.1875 -25 0 C-16.86079958 -3.39236903 -7.64747243 -5.02324373 0 0 Z " fill="#730015" transform="translate(231,278)"/>
<path d="M0 0 C0.75539062 0.44988281 1.51078125 0.89976562 2.2890625 1.36328125 C9.89325486 5.8064803 17.61846406 10.0094656 25.4375 14.0625 C26.37223145 14.56370361 27.30696289 15.06490723 28.27001953 15.58129883 C33.6005428 18.30193756 37.01980582 19.83952172 43 18 C45.74358852 16.97314948 48.36740738 15.78324353 51 14.5 C51.73041504 14.15122803 52.46083008 13.80245605 53.21337891 13.44311523 C59.72101238 10.27073167 65.88714961 6.61692714 72.0234375 2.78515625 C75 1 75 1 78 0 C77.90460938 0.57363281 77.80921875 1.14726562 77.7109375 1.73828125 C75.90925503 15.54419691 77.11376512 33.17064768 85 45 C80.11855367 56.12969764 73.01228883 61.57471325 61.86279297 66.28369141 C46.82110476 72.06774294 29.10985152 71.81176614 14.2890625 65.48828125 C6.14266377 61.74845626 -1.06362365 57.44905508 -6.0625 49.875 C-7.5878622 45.1972226 -5.96076057 41.78559119 -4.0625 37.4375 C0.22579773 25.94486208 0.50168587 12.15194656 0 0 Z " fill="#D38666" transform="translate(128,273)"/>
<path d="M0 0 C1 3 1 3 0.41088867 4.74462891 C0.0832251 5.39866699 -0.24443848 6.05270508 -0.58203125 6.7265625 C-7.73811036 22.25390397 -8.45146003 37.03703285 -8.82983398 53.84985352 C-9 57 -9 57 -10 61 C-36.4 61 -62.8 61 -90 61 C-91.12709319 57.61872044 -91.2059935 54.8684355 -91.32421875 51.3046875 C-92.03727362 31.06510786 -92.03727362 31.06510786 -97.85546875 11.7890625 C-98.23316406 10.86867188 -98.61085938 9.94828125 -99 9 C-98.67 8.34 -98.34 7.68 -98 7 C-97.57332031 7.36351562 -97.14664063 7.72703125 -96.70703125 8.1015625 C-80.18542028 21.38698163 -60.4585391 23.55260794 -40 22 C-26.80223111 20.37031049 -12.89354076 15.12875475 -4 5 C-3.34 5 -2.68 5 -2 5 C-1.34 3.35 -0.68 1.7 0 0 Z " fill="#60614C" transform="translate(217,330)"/>
<path d="M0 0 C5.61 0.66 11.22 1.32 17 2 C17.36587006 14.07371211 16.43678722 24.12642556 11 35 C11.11313766 39.52550657 13.22898664 42.5184704 16 46 C27.59855753 56.77790487 43.86106738 60.74727629 59.359375 60.34765625 C72.42327278 59.10013811 86.43142503 55.30318478 95.625 45.5 C98.28430948 42.19668238 100.49797538 39.31741174 101 35 C100.00990036 33.65929851 99.00853373 32.32689016 98 31 C94.25860121 21.45463643 93.88607465 12.13935586 94 2 C102.91 1.01 102.91 1.01 112 0 C113.86331264 4.65828161 114.34967606 7.94798459 114.3125 12.8125 C114.30730347 13.92322876 114.30730347 13.92322876 114.30200195 15.05639648 C114.10018408 25.57434127 112.37212397 36.38132726 108 46 C107.484375 47.155 106.96875 48.31 106.4375 49.5 C99.88102706 60.30467451 85.37569025 66.88801542 73.5625 69.9375 C51.61318146 73.88344491 29.79635601 71.38316158 11.19555664 58.77709961 C5.87974702 54.77188428 4.29990448 50.64246114 2.6875 44.3125 C2.31987549 42.96696045 2.31987549 42.96696045 1.94482422 41.59423828 C1.26742325 39.06921359 0.62760041 36.53778199 0 34 C-0.26941406 32.97003906 -0.53882812 31.94007813 -0.81640625 30.87890625 C-2.09043501 25.16805005 -2.19080075 19.45322385 -2.25 13.625 C-2.25950684 12.85075684 -2.26901367 12.07651367 -2.27880859 11.27880859 C-2.27445801 10.53969238 -2.27010742 9.80057617 -2.265625 9.0390625 C-2.26336914 8.38115723 -2.26111328 7.72325195 -2.25878906 7.04541016 C-2 5 -2 5 0 0 Z " fill="#201D14" transform="translate(111,282)"/>
<path d="M0 0 C-3.24426575 10.04014876 -17.14171104 15.25755733 -26.02246094 19.99267578 C-30.55292232 22.30041451 -35.24383787 24.20743132 -40 26 C-39.97905273 26.62865967 -39.95810547 27.25731934 -39.93652344 27.9050293 C-39.19900262 53.42184907 -39.19900262 53.42184907 -44 62 C-45.82421875 63.546875 -45.82421875 63.546875 -47.75 64.8125 C-49.68151342 66.01899948 -49.68151342 66.01899948 -51 68 C-52.05991514 75.94081587 -51.31334637 84.11992177 -50 92 C-53.15884728 89.34848274 -54.68357049 85.98394415 -56.375 82.3125 C-56.67881592 81.66200684 -56.98263184 81.01151367 -57.2956543 80.34130859 C-59.84278329 74.71307255 -61.73985131 68.96191859 -63.40185547 63.0168457 C-63.88323061 61.32906911 -64.43548926 59.66181813 -65 58 C-65.66 57.67 -66.32 57.34 -67 57 C-70.90928388 46.76054543 -70.99759372 35.66457291 -69 25 C-69.66386719 24.50371094 -70.32773438 24.00742188 -71.01171875 23.49609375 C-76.32987562 19.40460664 -80.43924699 15.69720482 -84 10 C-83.67 9.34 -83.34 8.68 -83 8 C-82.53851563 8.51949219 -82.07703125 9.03898437 -81.6015625 9.57421875 C-74.82043182 16.82439997 -66.87903898 21.91458914 -56.75 22.375 C-38.53216224 22.03126721 -18.99827228 10.56780837 -3.99169922 1.11694336 C-2 0 -2 0 0 0 Z " fill="#1D2841" transform="translate(137,76)"/>
<path d="M0 0 C0.83660156 0.4846875 1.67320313 0.969375 2.53515625 1.46875 C22.20572602 14.54062569 22.20572602 14.54062569 44 20 C46.76157697 19.05116466 46.76157697 19.05116466 49.44921875 17.62109375 C50.46306641 17.11126953 51.47691406 16.60144531 52.52148438 16.07617188 C53.56626953 15.53541016 54.61105469 14.99464844 55.6875 14.4375 C56.71294922 13.92380859 57.73839844 13.41011719 58.79492188 12.88085938 C65.03896545 9.70558769 70.9297523 6.22887661 76.73364258 2.30493164 C79 1 79 1 82 1 C82.03323342 6.10465266 81.95479657 11.21402998 80 16 C76.74683494 19.29440963 73.15868558 21.17619193 68.96630859 23.09521484 C66.90007221 24.04598117 64.88366666 25.06884072 62.86328125 26.11328125 C59.57211769 27.8054325 56.26521546 29.45510589 52.92333984 31.04492188 C51.58944433 31.70729801 50.27772884 32.41552927 48.98681641 33.15820312 C45.65884777 35.02513188 43.53717222 35.98930688 39.6640625 36.06640625 C31.51660132 33.69513023 24.1277451 29.32626597 16.65771484 25.37207031 C14.36564422 24.18876727 12.06197383 23.10448803 9.70703125 22.0546875 C6.15305168 20.29544789 3.63985817 18.96512641 1 16 C-0.69034083 10.79391073 -0.39903203 5.39020319 0 0 Z " fill="#BC5634" transform="translate(126,257)"/>
<path d="M0 0 C0.66 0.33 1.32 0.66 2 1 C-1.36372862 9.10898865 -5.82354906 12.38980189 -13.5 16.3125 C-15.36658183 17.30484371 -17.23123091 18.30083306 -19.09375 19.30078125 C-19.91552734 19.72528564 -20.73730469 20.14979004 -21.58398438 20.5871582 C-24.3768841 22.22039494 -26.69712302 23.71026932 -29 26 C-29.68520762 28.88738741 -29.68520762 28.88738741 -29.48828125 32.078125 C-29.47216797 33.23828125 -29.45605469 34.3984375 -29.43945312 35.59375 C-29.39755859 36.8003125 -29.35566406 38.006875 -29.3125 39.25 C-29.28994141 40.47203125 -29.26738281 41.6940625 -29.24414062 42.953125 C-29.18521758 45.96998502 -29.10299265 48.98437515 -29 52 C-28.53674316 51.58790283 -28.07348633 51.17580566 -27.59619141 50.7512207 C-26.97921387 50.21070068 -26.36223633 49.67018066 -25.7265625 49.11328125 C-25.11893066 48.57743408 -24.51129883 48.04158691 -23.88525391 47.48950195 C-17.8638087 42.73207678 -10.84500908 41.86828763 -3.38671875 41.90234375 C-2.13955078 41.90556641 -0.89238281 41.90878906 0.39257812 41.91210938 C1.68615234 41.92048828 2.97972656 41.92886719 4.3125 41.9375 C6.28186523 41.94426758 6.28186523 41.94426758 8.29101562 41.95117188 C11.5273901 41.96294051 14.76367178 41.9793824 18 42 C19.07957377 45.23872132 19.13326784 47.66028205 19.125 51.0625 C19.12886719 52.65771484 19.12886719 52.65771484 19.1328125 54.28515625 C19 57 19 57 18 59 C17.47792969 58.81824219 16.95585937 58.63648438 16.41796875 58.44921875 C13.9531881 57.60748105 11.47732222 56.80404318 9 56 C8.18015625 55.71382812 7.3603125 55.42765625 6.515625 55.1328125 C-5.61747526 51.2722806 -19.40780463 51.41730797 -31 57 C-33.27246225 58.87981219 -34.38367274 60.46775396 -36 63 C-36.556875 63.474375 -37.11375 63.94875 -37.6875 64.4375 C-41.77607068 69.30484604 -41.40540261 76.9214466 -41.625 82.9375 C-41.66367188 83.81212891 -41.70234375 84.68675781 -41.7421875 85.58789062 C-41.8356107 87.72494631 -41.91885398 89.86244294 -42 92 C-47.84726951 84.88715709 -47.80646354 74.45984751 -47.51953125 65.55859375 C-47 62 -47 62 -45.57421875 60.09765625 C-44.33834657 59.22698827 -43.08757803 58.37715574 -41.82421875 57.546875 C-37.64090812 53.99957091 -36.64681037 48.24446939 -36 43 C-35.57286636 35.33787963 -35.74457347 27.66574306 -36 20 C-32.04431403 18.01555687 -28.08732123 16.03689604 -24.10546875 14.10546875 C-11.23726392 8.27968383 -11.23726392 8.27968383 0 0 Z " fill="#B74B2D" transform="translate(132,82)"/>
<path d="M0 0 C0.90132518 2.70397555 1.08411144 4.40585529 1.1875 7.1875 C2.09486848 15.55695847 8.41348407 20.65981892 14.36328125 26.04296875 C16.82965005 28.02613994 16.82965005 28.02613994 19.26538086 28.99194336 C21.81140148 30.13617986 23.86844845 31.19090482 26 33 C27.21254157 36.40257473 27.0812638 39.60853793 26.9375 43.1875 C26.9179976 44.9934223 26.90625571 46.79944538 26.90234375 48.60546875 C26.89702637 49.49024902 26.89170898 50.3750293 26.88623047 51.28662109 C27.06836241 55.63042878 27.98440805 59.78327135 29 64 C22.57850841 55.60559462 22.6029612 47.33771406 23 37 C22.27554688 36.89816406 21.55109375 36.79632813 20.8046875 36.69140625 C12.76320657 34.7090356 5.60390152 27.6756572 1 21 C-1.73618597 15.89896759 -2.11837657 11.80045202 -2 6 C-2.95519531 6.39832031 -3.91039062 6.79664062 -4.89453125 7.20703125 C-15.08051311 11.40725862 -24.65628206 14.62399298 -35.64550781 15.96459961 C-47.04869203 17.38551055 -57.24291018 19.01372915 -65 28.3125 C-67.97786439 32.59363512 -70.14836385 37.1351423 -72 42 C-72.99 41.34 -73.98 40.68 -75 40 C-73.14373908 29.36868747 -68.52881919 19.91075828 -59.74609375 13.3046875 C-50.57994713 7.3660573 -41.05622981 6.80066674 -30.375 6.125 C-14.74721527 4.99593024 -14.74721527 4.99593024 0 0 Z " fill="#B84C2D" transform="translate(210,73)"/>
<path d="M0 0 C3.08367051 1.45762113 6.16687672 2.91622178 9.25 4.375 C10.12269531 4.7875 10.99539062 5.2 11.89453125 5.625 C12.73886719 6.02460937 13.58320313 6.42421875 14.453125 6.8359375 C15.22817383 7.20251465 16.00322266 7.5690918 16.80175781 7.94677734 C17.52717773 8.29434082 18.25259766 8.6419043 19 9 C19.7125293 9.31275879 20.42505859 9.62551758 21.15917969 9.94775391 C23 11 23 11 25 14 C26.62744488 30.27444875 18.09184579 49.3745552 10 63 C8.88439281 59.65317843 9.15060817 58.44134135 9.875 55.0625 C11.06208735 49.06289635 11.59568493 43.09664568 12 37 C10.82824219 36.566875 10.82824219 36.566875 9.6328125 36.125 C5.63140139 34.41519822 3.99454289 32.0103367 2.0859375 28.15234375 C-1.27183573 19.25581374 -0.26536518 9.34901926 0 0 Z " fill="#1C2740" transform="translate(236,107)"/>
<path d="M0 0 C6.16097986 5.3583568 9.55018287 11.2798526 12 19 C10.02 19 8.04 19 6 19 C6.66 18.01 7.32 17.02 8 16 C6.68 14.02 5.36 12.04 4 10 C3.73445313 10.55429688 3.46890625 11.10859375 3.1953125 11.6796875 C2.66550781 12.76636719 2.66550781 12.76636719 2.125 13.875 C1.60292969 14.95394531 1.60292969 14.95394531 1.0703125 16.0546875 C0 18 0 18 -2 20 C-2.99 20 -3.98 20 -5 20 C-5 20.66 -5 21.32 -5 22 C-11.55763424 23.63648626 -17.30998389 22.05679204 -23.5 19.625 C-26.18657626 17.87872543 -26.7380005 16.83949888 -28 14 C-27.38511719 14.3609375 -26.77023438 14.721875 -26.13671875 15.09375 C-25.32847656 15.5578125 -24.52023438 16.021875 -23.6875 16.5 C-22.88699219 16.9640625 -22.08648437 17.428125 -21.26171875 17.90625 C-18.9685882 19.21767886 -18.9685882 19.21767886 -16 19 C-16.66 18.34 -17.32 17.68 -18 17 C-20.70444511 12.94333233 -20.39391242 10.80573152 -20 6 C-19.67 5.34 -19.34 4.68 -19 4 C-19.73605469 4.433125 -20.47210938 4.86625 -21.23046875 5.3125 C-22.20628906 5.869375 -23.18210937 6.42625 -24.1875 7 C-25.63189453 7.8353125 -25.63189453 7.8353125 -27.10546875 8.6875 C-30.04888743 10.02216758 -31.81880057 10.27915461 -35 10 C-34.5248459 5.72361306 -32.12116265 3.76648508 -29 1 C-21.1239718 -4.51321974 -8.25831599 -5.30288594 0 0 Z " fill="#277BC4" transform="translate(139,155)"/>
<path d="M0 0 C2.68387336 2.42590401 5.00453422 4.97792803 7 8 C7 8.66 7 9.32 7 10 C1.22621075 9.5188509 -2.95859836 7.81532819 -8 5 C-7.938125 6.03125 -7.87625 7.0625 -7.8125 8.125 C-8.01135595 12.23468973 -8.94467803 14.48882496 -11 18 C-6.31908701 18 -5.37898396 17.00354129 -2 14 C-1.34 14.33 -0.68 14.66 0 15 C-5.35493432 20.9849266 -10.27127645 22.0607522 -17.94921875 22.94921875 C-20 23 -20 23 -23 22 C-23 21.34 -23 20.68 -23 20 C-23.5775 19.95875 -24.155 19.9175 -24.75 19.875 C-28.1915291 18.53662757 -29.21614699 16.13712081 -31 13 C-31.75 10.625 -31.75 10.625 -32 9 C-34.91171789 12.66980204 -34.91171789 12.66980204 -36 17 C-35.34 17.66 -34.68 18.32 -34 19 C-35.98 19 -37.96 19 -40 19 C-38.19813094 10.35102849 -33.14620841 4.06189763 -26 -1 C-18.3148232 -4.75322588 -7.43217314 -4.2529321 0 0 Z " fill="#246AA9" transform="translate(223,155)"/>
<path d="M0 0 C2.07457327 4.25659456 2.34703222 8.15808746 2.3125 12.8125 C2.31048584 13.54863525 2.30847168 14.28477051 2.30639648 15.04321289 C2.16536454 22.97393734 1.59642898 32.80714205 -2 40 C-5.31258663 39.716064 -6.91390671 39.06719476 -9.5625 37 C-17.73843215 26.93731428 -18.39224241 14.48638327 -18 2 C-15.37518273 1.66517137 -12.75016613 1.3320723 -10.125 1 C-9.37863281 0.90460938 -8.63226563 0.80921875 -7.86328125 0.7109375 C-2.2265625 0 -2.2265625 0 0 0 Z " fill="#3D0818" transform="translate(223,282)"/>
<path d="M0 0 C5.61 0.66 11.22 1.32 17 2 C17.36675766 14.10300287 17.44063885 27.34648343 9 37 C4.96875 40 4.96875 40 2 40 C1.514136 38.48129302 1.03668799 36.95989301 0.5625 35.4375 C0.29566406 34.59058594 0.02882813 33.74367188 -0.24609375 32.87109375 C-1.90408585 26.55697874 -2.18212351 20.35904446 -2.1875 13.875 C-2.19974609 13.08996094 -2.21199219 12.30492187 -2.22460938 11.49609375 C-2.22654297 10.73167969 -2.22847656 9.96726562 -2.23046875 9.1796875 C-2.23457764 8.49632324 -2.23868652 7.81295898 -2.24291992 7.10888672 C-2 5 -2 5 0 0 Z " fill="#3D0818" transform="translate(111,282)"/>
<path d="M0 0 C1.58984375 1.6875 1.58984375 1.6875 2.9375 4 C3.4428125 4.82113281 3.948125 5.64226562 4.46875 6.48828125 C4.9740625 7.31714844 5.479375 8.14601563 6 9 C9.73551425 14.51385747 13.74682956 18.89693196 19 23 C18.505 25.475 18.505 25.475 18 28 C13.42283978 27.41918611 9.93400969 25.44569595 6 23.1875 C-0.80552917 19.39960453 -7.43230418 16.93978038 -15 15 C-16.32913951 18.76434617 -15.71626351 21.80337565 -15.0625 25.6875 C-13.87640091 33.40515826 -13.42370862 40.31557952 -15 48 C-16.32 48 -17.64 48 -19 48 C-18.95570273 43.26706537 -18.88572153 38.53544659 -18.79248047 33.80322266 C-18.76434995 32.19525659 -18.74309611 30.58715428 -18.72900391 28.97900391 C-18.70746309 26.65977633 -18.66076128 24.34217305 -18.609375 22.0234375 C-18.60814636 21.31069672 -18.60691772 20.59795593 -18.60565186 19.86361694 C-18.40597005 12.97500267 -15.14427475 8.84121964 -10.375 4.1875 C-9.78460938 3.60355469 -9.19421875 3.01960938 -8.5859375 2.41796875 C-5.78939567 -0.08238761 -3.69680163 -0.45151776 0 0 Z " fill="#4E020F" transform="translate(230,343)"/>
<path d="M0 0 C3.73655757 0.43928368 5.16060545 1.96016994 7.8828125 4.51171875 C8.73101562 5.28902344 9.57921875 6.06632812 10.453125 6.8671875 C15.0515273 11.76955198 16.21038851 15.60536623 16.26953125 22.25 C16.28748245 22.99759079 16.30543365 23.74518158 16.32392883 24.51542664 C16.37785099 26.88913433 16.41186804 29.26264307 16.4453125 31.63671875 C16.47850171 33.2519807 16.51299285 34.86721646 16.54882812 36.48242188 C16.63356649 40.42954351 16.70046299 44.37660802 16.7578125 48.32421875 C15.4378125 48.32421875 14.1178125 48.32421875 12.7578125 48.32421875 C9.71057673 37.86610557 12.35190341 25.91874794 13.7578125 15.32421875 C3.75888896 16.90299615 -5.36778545 21.39839391 -14.015625 26.55078125 C-17.2421875 28.32421875 -17.2421875 28.32421875 -20.2421875 28.32421875 C-21.01953125 26.07421875 -21.01953125 26.07421875 -21.2421875 23.32421875 C-19.43359375 21.32421875 -19.43359375 21.32421875 -16.8046875 19.32421875 C-10.55025331 14.1092539 -7.22891341 8.31920521 -3.2421875 1.32421875 C-2.2421875 0.32421875 -2.2421875 0.32421875 0 0 Z " fill="#4E020F" transform="translate(106.2421875,342.67578125)"/>
<path d="M0 0 C1.87075195 -0.0309375 1.87075195 -0.0309375 3.77929688 -0.0625 C13.2058919 -0.10212836 22.03571162 0.41160987 29.5 6.75 C30.21027344 7.3378125 30.92054688 7.925625 31.65234375 8.53125 C33.34704147 10.05613139 34.97339167 11.6160579 36.5625 13.25 C36.2325 13.91 35.9025 14.57 35.5625 15.25 C33.67447917 14.50130208 31.78645833 13.75260417 29.8984375 13.00390625 C17.49444727 9.00061174 2.62741746 10.28828616 -9 16 C-9.804375 16.4125 -10.60875 16.825 -11.4375 17.25 C-12.4275 16.92 -13.4175 16.59 -14.4375 16.25 C-14.46435095 13.77076199 -14.48426547 11.2918116 -14.5 8.8125 C-14.51256836 7.75192383 -14.51256836 7.75192383 -14.52539062 6.66992188 C-14.53403588 4.86306441 -14.48970011 3.05612397 -14.4375 1.25 C-11.72241111 -1.46508889 -3.64987325 0.01468023 0 0 Z " fill="#643B13" transform="translate(197.4375,123.75)"/>
<path d="M0 0 C1.24716797 0.00322266 2.49433594 0.00644531 3.77929688 0.00976562 C5.07287109 0.01814453 6.36644531 0.02652344 7.69921875 0.03515625 C9.66858398 0.04192383 9.66858398 0.04192383 11.67773438 0.04882812 C14.91410885 0.06059676 18.15039053 0.07703865 21.38671875 0.09765625 C22.46629252 3.33637757 22.51998659 5.7579383 22.51171875 9.16015625 C22.51558594 10.75537109 22.51558594 10.75537109 22.51953125 12.3828125 C22.38671875 15.09765625 22.38671875 15.09765625 21.38671875 17.09765625 C20.86464844 16.91589844 20.34257812 16.73414063 19.8046875 16.546875 C17.33990685 15.7051373 14.86404097 14.90169943 12.38671875 14.09765625 C11.566875 13.81148437 10.74703125 13.5253125 9.90234375 13.23046875 C-1.03299583 9.75104252 -12.62488247 9.79996907 -23.4765625 13.5390625 C-25.61328125 14.09765625 -25.61328125 14.09765625 -28.61328125 13.09765625 C-20.73616195 4.04679401 -11.97319562 -0.05467213 0 0 Z " fill="#643B13" transform="translate(128.61328125,123.90234375)"/>
<path d="M0 0 C-1.64445712 1.69428915 -3.30945323 3.35246969 -5 5 C-5.49628906 5.50402344 -5.99257812 6.00804687 -6.50390625 6.52734375 C-12.46487966 12.17231375 -19.78968568 15.10841108 -28 15.5 C-36.40616871 15.09906985 -43.64999593 11.97681866 -49.85546875 6.3671875 C-51 5 -51 5 -51 3 C-51.99 2.67 -52.98 2.34 -54 2 C-54 1.67 -54 1.34 -54 1 C-50.83335334 0.97059542 -47.66674253 0.95306685 -44.5 0.9375 C-43.613125 0.92912109 -42.72625 0.92074219 -41.8125 0.91210938 C-37.68039744 0.89691782 -33.68738993 0.97495503 -29.59375 1.56640625 C-26.28607481 1.96548445 -25.04759676 1.82897221 -22 1 C-18.63501926 0.53363186 -15.25491616 0.21442581 -11.875 -0.125 C-10.95589844 -0.22425781 -10.03679687 -0.32351562 -9.08984375 -0.42578125 C-8.21199219 -0.51472656 -7.33414063 -0.60367188 -6.4296875 -0.6953125 C-5.62772949 -0.77797363 -4.82577148 -0.86063477 -3.99951172 -0.94580078 C-2 -1 -2 -1 0 0 Z " fill="#BA4B21" transform="translate(195,228)"/>
<path d="M0 0 C1.48444433 2.96888866 0.55577496 4.78187515 -0.3125 7.9375 C-2.29250254 13.48680478 -2.29250254 13.48680478 -4.86328125 15.3515625 C-7.57255837 16.20318329 -10.18444833 16.61402474 -13 17 C-14.26972656 17.2475 -15.53945312 17.495 -16.84765625 17.75 C-23.5169438 19.02652531 -30.14899831 19.98056437 -36.92578125 20.45703125 C-37.93423096 20.52913818 -38.94268066 20.60124512 -39.98168945 20.67553711 C-41.93861666 20.80485924 -43.89694742 20.91494441 -45.85620117 21.00219727 C-55.21830234 21.60234254 -63.38779732 25.23751999 -70 32 C-74.23344368 37.91849988 -77.07208062 43.99860856 -79 51 C-79.33 51 -79.66 51 -80 51 C-80.65600463 43.61994788 -78.626481 36.73433317 -74.3515625 30.65625 C-62.8277942 17.16991854 -46.20218133 15.15454646 -29.60766602 12.09326172 C-13.95837195 9.8302955 -13.95837195 9.8302955 -1.17895508 1.84179688 C-0.59537231 0.93010742 -0.59537231 0.93010742 0 0 Z " fill="#0B0F14" transform="translate(215,60)"/>
<path d="M0 0 C-3.2046882 9.91766663 -17.01718269 15.33007091 -25.859375 19.94970703 C-37.72559883 25.77184377 -51.25901865 30.65591697 -64.5 27 C-72.90469286 23.84078921 -79.31790455 17.49135272 -84 10 C-83.67 9.34 -83.34 8.68 -83 8 C-82.53851563 8.51949219 -82.07703125 9.03898437 -81.6015625 9.57421875 C-74.82043182 16.82439997 -66.87903898 21.91458914 -56.75 22.375 C-38.53216224 22.03126721 -18.99827228 10.56780837 -3.99169922 1.11694336 C-2 0 -2 0 0 0 Z " fill="#0B0F14" transform="translate(137,76)"/>
<path d="M0 0 C0.99 0.309375 1.98 0.61875 3 0.9375 C6.52517228 9.53010744 5.37270242 17.47691744 2 25.9375 C-0.41281981 30.28057566 -2.97971785 33.03396289 -7 35.9375 C-7.66 35.6075 -8.32 35.2775 -9 34.9375 C-7.63875 33.5453125 -7.63875 33.5453125 -6.25 32.125 C0.57792546 24.06740076 1.64383583 15.18522022 1 4.9375 C-2.13837611 4.6297083 -3.59343628 4.65936216 -6.23828125 6.46875 C-6.92277344 7.1184375 -7.60726563 7.768125 -8.3125 8.4375 C-9.00988281 9.0871875 -9.70726562 9.736875 -10.42578125 10.40625 C-10.94527344 10.9115625 -11.46476562 11.416875 -12 11.9375 C-11.195625 12.453125 -10.39125 12.96875 -9.5625 13.5 C-7 15.9375 -7 15.9375 -5.875 19.375 C-6 22.9375 -6 22.9375 -8.1875 25.75 C-12.5 29.10416667 -12.5 29.10416667 -15 29.9375 C-15.99 29.6075 -16.98 29.2775 -18 28.9375 C-17.773125 28.009375 -17.54625 27.08125 -17.3125 26.125 C-16.63680017 22.96923152 -16.63680017 22.96923152 -18.4375 21.0625 C-18.953125 20.69125 -19.46875 20.32 -20 19.9375 C-17.66474466 12.46468292 -8.95014066 -1.26567646 0 0 Z " fill="#AB3611" transform="translate(270,157.0625)"/>
<path d="M0 0 C5.59631016 0.52058699 8.64977153 2.28288358 12.3371582 6.54589844 C13.69480323 8.25836844 15.01058914 9.99483128 16.3125 11.75 C16.9940918 12.65298828 16.9940918 12.65298828 17.68945312 13.57421875 C18.79857709 15.04526738 19.90008363 16.52205412 21 18 C20.51015625 18.59554687 20.0203125 19.19109375 19.515625 19.8046875 C17.5271541 22.68489535 17.70163902 24.56884874 18 28 C18.33 28.66 18.66 29.32 19 30 C13.37436623 29.59816902 10.76488291 28.03380312 7 24 C6.25 21.125 6.25 21.125 7 18 C8.79067245 15.4477772 10.80425927 13.20881062 13 11 C11.68 10.34 10.36 9.68 9 9 C9 8.34 9 7.68 9 7 C5.62902617 5.50178941 3.79557881 5 0 5 C-2.19132158 13.76528632 0.80633651 22.60400586 5.015625 30.375 C6.21788653 32.35968571 7.51423405 34.21708086 9 36 C3.46734689 33.74595614 0.16482648 29.89356652 -2.3125 24.5625 C-4.62136314 18.28616184 -5.09415131 11.58904356 -4 5 C-1.96875 2.08203125 -1.96875 2.08203125 0 0 Z " fill="#AB3611" transform="translate(63,157)"/>
<path d="M0 0 C6.16097986 5.3583568 9.55018287 11.2798526 12 19 C10.02 19 8.04 19 6 19 C6.66 18.01 7.32 17.02 8 16 C4.73581458 9.38961445 1.03971933 5.48195233 -6 3 C-13.27566426 1.27940372 -18.84075809 3.9629634 -25.09057617 7.50878906 C-28.56815613 9.46080111 -30.99578638 10.42070537 -35 10 C-34.5248459 5.72361306 -32.12116265 3.76648508 -29 1 C-21.1239718 -4.51321974 -8.25831599 -5.30288594 0 0 Z " fill="#141518" transform="translate(139,155)"/>
<path d="M0 0 C2.68387336 2.42590401 5.00453422 4.97792803 7 8 C7 8.66 7 9.32 7 10 C1.93844385 9.76992927 -1.35898986 8.3797475 -5.8125 5.9375 C-12.22792477 2.61365321 -17.19520633 1.61004183 -24.1875 3.6328125 C-29.66605846 5.93629731 -33.07987298 9.88977772 -36 15 C-36 15.66 -36 16.32 -36 17 C-35.34 17.66 -34.68 18.32 -34 19 C-35.98 19 -37.96 19 -40 19 C-38.19813094 10.35102849 -33.14620841 4.06189763 -26 -1 C-18.3148232 -4.75322588 -7.43217314 -4.2529321 0 0 Z " fill="#141518" transform="translate(223,155)"/>
<path d="M0 0 C-6.78942141 6.92559892 -14.1599231 11.01580574 -24 11.5 C-33.27111059 11.05781667 -40.46272394 7.39200326 -47 1 C-45 0 -45 0 -43.06640625 0.55859375 C-42.24011719 0.84863281 -41.41382813 1.13867188 -40.5625 1.4375 C-28.61267971 4.82930182 -15.92826491 4.14992953 -4.37109375 -0.22265625 C-2 -1 -2 -1 0 0 Z " fill="#D65F2D" transform="translate(191,232)"/>
<path d="M0 0 C0.33 0.66 0.66 1.32 1 2 C2.66411677 3.04415562 2.66411677 3.04415562 5 4 C6.175625 4.53625 7.35125 5.0725 8.5625 5.625 C16.00887409 8.33780543 23.71539249 7.68601072 31.05078125 4.93359375 C33.71519772 3.65745039 35.84961854 2.01164717 38 0 C37.4936146 4.43087221 36.28947477 6.95723584 33 10 C24.5332141 13.4148783 13.44794736 13.20439383 5 10 C2.74345674 8.12872022 1.6221023 6.53453485 0 4 C0 2.68 0 1.36 0 0 Z " fill="#BD5727" transform="translate(148,203)"/>
<path d="M0 0 C2.67349715 0.28142075 4.55305094 0.70717131 6.8125 2.1875 C8.58260835 4.88924432 8.39415803 6.84673574 8 10 C6.9375 11.875 6.9375 11.875 5 13 C1.5 13.4375 1.5 13.4375 -2 13 C-3.9375 11 -3.9375 11 -5 9 C-3.68 8.67 -2.36 8.34 -1 8 C-1.020625 6.865625 -1.04125 5.73125 -1.0625 4.5625 C-1 1 -1 1 0 0 Z " fill="#151618" transform="translate(202,158)"/>
<path d="M0 0 C3.63 1.65 7.26 3.3 11 5 C9.76176274 9.95294905 8.13119835 10.88655722 4.14453125 13.73828125 C1.4634987 15.31564649 -0.90508804 15.8452544 -4 16 C-3.566875 15.27296875 -3.566875 15.27296875 -3.125 14.53125 C-0.27143703 9.37898353 0.41931138 5.87035937 0 0 Z " fill="#FFFFFF" transform="translate(214,159)"/>
<path d="M0 0 C-0.06960937 0.97839844 -0.06960937 0.97839844 -0.140625 1.9765625 C-0.39266565 8.07954686 0.03942021 11.2968115 4 16 C-1.79691323 15.71015434 -6.0015733 13.07476897 -10 9 C-10.73046875 6.80078125 -10.73046875 6.80078125 -11 5 C-9.54462432 4.16151196 -8.08559627 3.32936066 -6.625 2.5 C-5.81289062 2.0359375 -5.00078125 1.571875 -4.1640625 1.09375 C-2 0 -2 0 0 0 Z " fill="#FFFFFF" transform="translate(120,159)"/>
<path d="M0 0 C-0.0825 0.928125 -0.165 1.85625 -0.25 2.8125 C-0.35303045 6.09105222 -0.35303045 6.09105222 2 7.875 C2.66 8.24625 3.32 8.6175 4 9 C2.9375 10.5 2.9375 10.5 1 12 C-2.4093712 12.36528977 -4.88023824 12.6140629 -7.9375 10.9375 C-9.653547 7.80823783 -9.49748049 5.48236342 -9 2 C-5.92176528 -0.73620864 -3.875152 -1.57876563 0 0 Z " fill="#151618" transform="translate(133,159)"/>
<path d="M0 0 C0.33 0 0.66 0 1 0 C1.15855469 0.61488281 1.31710938 1.22976562 1.48046875 1.86328125 C2.90294275 7.16765421 2.90294275 7.16765421 6.6875 10.9375 C7.450625 11.288125 8.21375 11.63875 9 12 C9 12.66 9 13.32 9 14 C3.79459302 13.03603575 -0.59913433 12.12319499 -5 9 C-3.75471468 5.55151758 -2.38532951 2.80016942 0 0 Z " fill="#FFFFFF" transform="translate(191,163)"/>
<path d="M0 0 C3.08089673 2.77280706 4.68775452 5.06326356 6 9 C1.35796103 11.53309233 -2.65155992 13.46515599 -8 14 C-8 13.34 -8 12.68 -8 12 C-7.236875 11.649375 -6.47375 11.29875 -5.6875 10.9375 C-1.76937553 8.11280562 -1.17177859 4.54421453 0 0 Z " fill="#FFFFFF" transform="translate(142,163)"/>
<path d="M0 0 C1.65 0.99 3.3 1.98 5 3 C4.67 4.65 4.34 6.3 4 8 C1.625 8.625 1.625 8.625 -1 9 C-3 7 -3 7 -3.3125 4.5 C-3.209375 3.675 -3.10625 2.85 -3 2 C-2.01 1.34 -1.02 0.68 0 0 Z " fill="#FFFFFF" transform="translate(135,158)"/>
<path d="M0 0 C0.78375 0.04125 1.5675 0.0825 2.375 0.125 C3.0625 2.4375 3.0625 2.4375 3.375 5.125 C2.25 7 2.25 7 0.375 8.125 C-2.3125 7.8125 -2.3125 7.8125 -4.625 7.125 C-4.75 4.75 -4.75 4.75 -4.625 2.125 C-2.625 0.125 -2.625 0.125 0 0 Z " fill="#FFFFFF" transform="translate(198.625,158.875)"/>
<path d="M0 0 C0.48726563 0.33773437 0.97453125 0.67546875 1.4765625 1.0234375 C8.33047925 5.33517422 15.02749214 6.2401735 23 7 C18.69909459 9.86727027 15.86356157 8.63068823 10.95703125 7.69921875 C7.58416592 6.90167199 4.87026612 5.96386629 2 4 C0.8515625 1.8984375 0.8515625 1.8984375 0 0 Z " fill="#141518" transform="translate(111,169)"/>
</svg>
